<svg width="22" height="22" viewBox="0 0 22 22" fill="none" xmlns="http://www.w3.org/2000/svg">
<path d="M2.37052 6.03716C2.6862 5.7215 3.10622 5.53188 3.55177 5.50386C3.99731 5.47584 4.43777 5.61136 4.79052 5.88499L4.96285 6.03716L11 12.0725L17.0372 6.03716C17.3529 5.7215 17.7729 5.53188 18.2184 5.50386C18.664 5.47584 19.1044 5.61136 19.4572 5.88499L19.6295 6.03716C19.9452 6.35284 20.1348 6.77286 20.1628 7.21841C20.1908 7.66396 20.0553 8.10442 19.7817 8.45716L19.6295 8.62949L12.2962 15.9628C11.9805 16.2785 11.5605 16.4681 11.1149 16.4961C10.6694 16.5241 10.2289 16.3886 9.87618 16.115L9.70385 15.9628L2.37052 8.62949C2.02682 8.28569 1.83374 7.81946 1.83374 7.33332C1.83374 6.84719 2.02682 6.38096 2.37052 6.03716Z" fill="#424242"/>
</svg>
